<svg width="24" height="25" viewBox="0 0 24 25" fill="none" xmlns="http://www.w3.org/2000/svg">
<path fill-rule="evenodd" clip-rule="evenodd" d="M12 5.29999C10.0905 5.29999 8.25912 6.05856 6.90886 7.40883C5.55859 8.75909 4.80002 10.5904 4.80002 12.5C4.80002 14.4096 5.55859 16.2409 6.90886 17.5912C8.25912 18.9414 10.0905 19.7 12 19.7C13.9096 19.7 15.7409 18.9414 17.0912 17.5912C18.4415 16.2409 19.2 14.4096 19.2 12.5C19.2 10.5904 18.4415 8.75909 17.0912 7.40883C15.7409 6.05856 13.9096 5.29999 12 5.29999ZM2.40002 12.5C2.40002 9.95392 3.41145 7.51212 5.2118 5.71177C7.01215 3.91142 9.45395 2.89999 12 2.89999C14.5461 2.89999 16.9879 3.91142 18.7882 5.71177C20.5886 7.51212 21.6 9.95392 21.6 12.5C21.6 15.0461 20.5886 17.4879 18.7882 19.2882C16.9879 21.0886 14.5461 22.1 12 22.1C9.45395 22.1 7.01215 21.0886 5.2118 19.2882C3.41145 17.4879 2.40002 15.0461 2.40002 12.5Z" fill="#0E3F30"/>
<path d="M7.5 12H16.5V13.5H7.5V12ZM7.5 15.75H13.5V17.25H7.5V15.75ZM7.5 8.24999H16.5V9.74999H7.5V8.24999Z" fill="#0E3F30"/>
<path fill-rule="evenodd" clip-rule="evenodd" d="M18.7884 5.7116C19.0134 5.93663 19.1398 6.2418 19.1398 6.56C19.1398 6.87819 19.0134 7.18336 18.7884 7.4084L6.90841 19.2884C6.68209 19.507 6.37896 19.6279 6.06433 19.6252C5.74969 19.6225 5.44872 19.4963 5.22623 19.2738C5.00374 19.0513 4.87754 18.7503 4.8748 18.4357C4.87207 18.121 4.99302 17.8179 5.21161 17.5916L17.0916 5.7116C17.3166 5.48663 17.6218 5.36025 17.94 5.36025C18.2582 5.36025 18.5634 5.48663 18.7884 5.7116Z" fill="#0E3F30"/>
</svg>
