<svg width="20" height="21" viewBox="0 0 20 21" fill="none" xmlns="http://www.w3.org/2000/svg">
<path d="M17.1875 16.8281H2.8125C2.4668 16.8281 2.1875 17.1074 2.1875 17.4531V18.1562C2.1875 18.2422 2.25781 18.3125 2.34375 18.3125H17.6562C17.7422 18.3125 17.8125 18.2422 17.8125 18.1562V17.4531C17.8125 17.1074 17.5332 16.8281 17.1875 16.8281ZM5.0332 15.1875C5.07227 15.1875 5.11133 15.1836 5.15039 15.1777L8.43555 14.6016C8.47461 14.5938 8.51172 14.5762 8.53906 14.5469L16.8184 6.26758C16.8365 6.24951 16.8508 6.22805 16.8606 6.20442C16.8704 6.18079 16.8755 6.15546 16.8755 6.12988C16.8755 6.1043 16.8704 6.07897 16.8606 6.05535C16.8508 6.03172 16.8365 6.01026 16.8184 5.99219L13.5723 2.74414C13.5352 2.70703 13.4863 2.6875 13.4336 2.6875C13.3809 2.6875 13.332 2.70703 13.2949 2.74414L5.01562 11.0234C4.98633 11.0527 4.96875 11.0879 4.96094 11.127L4.38477 14.4121C4.36577 14.5167 4.37255 14.6244 4.40454 14.7258C4.43654 14.8273 4.49276 14.9193 4.56836 14.9941C4.69727 15.1191 4.85938 15.1875 5.0332 15.1875Z" fill="#0E3F30"/>
</svg>
