<svg width="24" height="25" viewBox="0 0 24 25" fill="none" xmlns="http://www.w3.org/2000/svg">
<path d="M15.2143 12.5C15.1029 12.5 14.9829 12.4829 14.8715 12.4486C14.6583 12.3766 14.4732 12.2393 14.3424 12.0562C14.2117 11.8732 14.1419 11.6536 14.1429 11.4286V9.92C12.9429 9.80857 12 8.79714 12 7.57143V4.57143C12 3.26857 13.0543 2.21429 14.3572 2.21429H19.9286C21.2315 2.21429 22.2857 3.26857 22.2857 4.57143V7.57143C22.2857 8.87429 21.2315 9.92857 19.9286 9.92857H17.6829L16.0715 12.0714C15.8657 12.3457 15.5486 12.5 15.2143 12.5ZM8.14288 14.6429C7.17743 14.6406 6.25217 14.2561 5.56949 13.5734C4.88682 12.8907 4.50229 11.9655 4.50003 11C4.50229 10.0346 4.88682 9.10929 5.56949 8.42661C6.25217 7.74393 7.17743 7.35941 8.14288 7.35714C9.10833 7.35941 10.0336 7.74393 10.7163 8.42661C11.3989 9.10929 11.7835 10.0346 11.7857 11C11.7835 11.9655 11.3989 12.8907 10.7163 13.5734C10.0336 14.2561 9.10833 14.6406 8.14288 14.6429ZM2.97517 21.0029C4.09803 22.1857 5.83803 22.7857 8.14374 22.7857C10.4495 22.7857 12.1895 22.1857 13.3123 21.0029C14.6169 19.6229 14.5749 17.9574 14.5723 17.8451V17.84C14.5723 16.7857 13.7152 15.9286 12.6609 15.9286H3.6266C2.57231 15.9286 1.71517 16.7857 1.71517 17.8057V17.8169C1.71174 17.9797 1.67917 19.6314 2.97517 21.0029Z" fill="#0E3F30"/>
</svg>
