<svg width="24" height="24" viewBox="0 0 24 24" fill="none" xmlns="http://www.w3.org/2000/svg">
<path d="M15.2143 12C15.1029 12 14.9829 11.9829 14.8714 11.9486C14.6583 11.8766 14.4732 11.7393 14.3424 11.5562C14.2116 11.3732 14.1418 11.1536 14.1429 10.9286V9.42C12.9429 9.30857 12 8.29714 12 7.07143V4.07143C12 2.76857 13.0543 1.71429 14.3571 1.71429H19.9286C21.2314 1.71429 22.2857 2.76857 22.2857 4.07143V7.07143C22.2857 8.37429 21.2314 9.42857 19.9286 9.42857H17.6829L16.0714 11.5714C15.8657 11.8457 15.5486 12 15.2143 12ZM8.14285 14.1429C7.1774 14.1406 6.25214 13.7561 5.56946 13.0734C4.88679 12.3907 4.50226 11.4655 4.49999 10.5C4.50226 9.53455 4.88679 8.60929 5.56946 7.92661C6.25214 7.24393 7.1774 6.85941 8.14285 6.85714C9.1083 6.85941 10.0336 7.24393 10.7162 7.92661C11.3989 8.60929 11.7834 9.53455 11.7857 10.5C11.7834 11.4655 11.3989 12.3907 10.7162 13.0734C10.0336 13.7561 9.1083 14.1406 8.14285 14.1429ZM2.97514 20.5029C4.09799 21.6857 5.838 22.2857 8.14371 22.2857C10.4494 22.2857 12.1894 21.6857 13.3123 20.5029C14.6169 19.1229 14.5749 17.4574 14.5723 17.3451V17.34C14.5723 16.2857 13.7151 15.4286 12.6609 15.4286H3.62657C2.57228 15.4286 1.71514 16.2857 1.71514 17.3057V17.3169C1.71171 17.4797 1.67914 19.1314 2.97514 20.5029Z" fill="#15C39A"/>
</svg>
