<svg width="38" height="38" viewBox="0 0 38 38" fill="none" xmlns="http://www.w3.org/2000/svg">
<path d="M12.6667 14.25C13.0866 14.25 13.4893 14.0832 13.7863 13.7862C14.0832 13.4893 14.25 13.0866 14.25 12.6667C14.25 12.2467 14.0832 11.844 13.7863 11.5471C13.4893 11.2501 13.0866 11.0833 12.6667 11.0833C12.2468 11.0833 11.844 11.2501 11.5471 11.5471C11.2502 11.844 11.0833 12.2467 11.0833 12.6667C11.0833 13.0866 11.2502 13.4893 11.5471 13.7862C11.844 14.0832 12.2468 14.25 12.6667 14.25ZM14.25 23.75C13.8301 23.75 13.4274 23.9168 13.1304 24.2137C12.8335 24.5107 12.6667 24.9134 12.6667 25.3333C12.6667 25.7533 12.8335 26.156 13.1304 26.4529C13.4274 26.7498 13.8301 26.9167 14.25 26.9167H23.75C24.1699 26.9167 24.5727 26.7498 24.8696 26.4529C25.1665 26.156 25.3333 25.7533 25.3333 25.3333C25.3333 24.9134 25.1665 24.5107 24.8696 24.2137C24.5727 23.9168 24.1699 23.75 23.75 23.75H14.25ZM14.25 19C14.25 19.4199 14.0832 19.8226 13.7863 20.1196C13.4893 20.4165 13.0866 20.5833 12.6667 20.5833C12.2468 20.5833 11.844 20.4165 11.5471 20.1196C11.2502 19.8226 11.0833 19.4199 11.0833 19C11.0833 18.5801 11.2502 18.1773 11.5471 17.8804C11.844 17.5835 12.2468 17.4167 12.6667 17.4167C13.0866 17.4167 13.4893 17.5835 13.7863 17.8804C14.0832 18.1773 14.25 18.5801 14.25 19ZM19 14.25C19.4199 14.25 19.8227 14.0832 20.1196 13.7862C20.4165 13.4893 20.5833 13.0866 20.5833 12.6667C20.5833 12.2467 20.4165 11.844 20.1196 11.5471C19.8227 11.2501 19.4199 11.0833 19 11.0833C18.5801 11.0833 18.1774 11.2501 17.8804 11.5471C17.5835 11.844 17.4167 12.2467 17.4167 12.6667C17.4167 13.0866 17.5835 13.4893 17.8804 13.7862C18.1774 14.0832 18.5801 14.25 19 14.25ZM20.5833 19C20.5833 19.4199 20.4165 19.8226 20.1196 20.1196C19.8227 20.4165 19.4199 20.5833 19 20.5833C18.5801 20.5833 18.1774 20.4165 17.8804 20.1196C17.5835 19.8226 17.4167 19.4199 17.4167 19C17.4167 18.5801 17.5835 18.1773 17.8804 17.8804C18.1774 17.5835 18.5801 17.4167 19 17.4167C19.4199 17.4167 19.8227 17.5835 20.1196 17.8804C20.4165 18.1773 20.5833 18.5801 20.5833 19ZM25.3333 14.25C25.7533 14.25 26.156 14.0832 26.4529 13.7862C26.7499 13.4893 26.9167 13.0866 26.9167 12.6667C26.9167 12.2467 26.7499 11.844 26.4529 11.5471C26.156 11.2501 25.7533 11.0833 25.3333 11.0833C24.9134 11.0833 24.5107 11.2501 24.2138 11.5471C23.9168 11.844 23.75 12.2467 23.75 12.6667C23.75 13.0866 23.9168 13.4893 24.2138 13.7862C24.5107 14.0832 24.9134 14.25 25.3333 14.25ZM26.9167 19C26.9167 19.4199 26.7499 19.8226 26.4529 20.1196C26.156 20.4165 25.7533 20.5833 25.3333 20.5833C24.9134 20.5833 24.5107 20.4165 24.2138 20.1196C23.9168 19.8226 23.75 19.4199 23.75 19C23.75 18.5801 23.9168 18.1773 24.2138 17.8804C24.5107 17.5835 24.9134 17.4167 25.3333 17.4167C25.7533 17.4167 26.156 17.5835 26.4529 17.8804C26.7499 18.1773 26.9167 18.5801 26.9167 19Z" fill="white"/>
<path fill-rule="evenodd" clip-rule="evenodd" d="M4.75001 9.5C4.75001 8.24022 5.25045 7.03204 6.14125 6.14124C7.03205 5.25045 8.24023 4.75 9.50001 4.75H28.5C29.7598 4.75 30.968 5.25045 31.8588 6.14124C32.7496 7.03204 33.25 8.24022 33.25 9.5V28.5C33.25 29.7598 32.7496 30.968 31.8588 31.8588C30.968 32.7496 29.7598 33.25 28.5 33.25H9.50001C8.24023 33.25 7.03205 32.7496 6.14125 31.8588C5.25045 30.968 4.75001 29.7598 4.75001 28.5V9.5ZM9.50001 7.91667H28.5C28.9199 7.91667 29.3227 8.08348 29.6196 8.38041C29.9165 8.67735 30.0833 9.08007 30.0833 9.5V28.5C30.0833 28.9199 29.9165 29.3227 29.6196 29.6196C29.3227 29.9165 28.9199 30.0833 28.5 30.0833H9.50001C9.08008 30.0833 8.67735 29.9165 8.38042 29.6196C8.08349 29.3227 7.91667 28.9199 7.91667 28.5V9.5C7.91667 9.08007 8.08349 8.67735 8.38042 8.38041C8.67735 8.08348 9.08008 7.91667 9.50001 7.91667Z" fill="white"/>
</svg>
