<svg width="12" height="12" viewBox="0 0 12 12" fill="none" xmlns="http://www.w3.org/2000/svg">
<path d="M5.9998 10.8C6.66255 10.8 7.1998 10.2628 7.1998 9.60002C7.1998 8.93728 6.66255 8.40002 5.9998 8.40002C5.33706 8.40002 4.7998 8.93728 4.7998 9.60002C4.7998 10.2628 5.33706 10.8 5.9998 10.8Z" fill="#EDEAE4"/>
<path d="M9.8401 6.96001C9.17421 6.15272 8.23447 5.61878 7.2001 5.46001L9.2401 7.50001L9.8401 6.96001ZM11.4001 5.04001C10.5805 4.04607 9.5618 3.29693 8.43246 2.85775C7.30312 2.41856 6.09738 2.30262 4.9201 2.52001L6.0001 3.60001C6.8565 3.62791 7.69673 3.84077 8.46312 4.22396C9.22952 4.60716 9.90394 5.15163 10.4401 5.82001L11.4001 5.04001ZM2.1001 1.20001L1.2001 2.04001L2.5201 3.36001C1.79288 3.81172 1.14434 4.37919 0.600098 5.04001L1.5001 5.82001C2.03291 5.18046 2.68502 4.65062 3.4201 4.26001L4.8001 5.58001C4.02389 5.84551 3.33784 6.32367 2.8201 6.96001L3.6601 7.80001C3.91945 7.46345 4.24482 7.18342 4.61624 6.97707C4.98767 6.77072 5.39732 6.64241 5.8201 6.60001L9.9001 10.8L10.8001 9.90001L2.1001 1.20001Z" fill="#EDEAE4"/>
</svg>
