<svg width="30" height="30" viewBox="0 0 30 30" fill="none" xmlns="http://www.w3.org/2000/svg">
<path fill-rule="evenodd" clip-rule="evenodd" d="M15 30C6.71573 30 0 23.2843 0 15C0 6.71573 6.71573 0 15 0C23.2843 0 30 6.71573 30 15C30 23.2843 23.2843 30 15 30ZM15 28.5C22.4558 28.5 28.5 22.4558 28.5 15C28.5 7.54416 22.4558 1.5 15 1.5C7.54416 1.5 1.5 7.54416 1.5 15C1.5 22.4558 7.54416 28.5 15 28.5ZM14.9822 25.5C9.63629 25.5 4.56262 20.3727 4.56262 16.6672C4.56262 14.5406 9.18325 17.1 14.9822 17.1C20.7812 17.1 25.4529 14.5441 25.4374 16.6672C25.4112 20.258 20.3282 25.5 14.9822 25.5ZM14.9822 20.775C19.9528 20.775 23.3913 18.8535 23.3913 17.4677C23.3913 16.082 19.9528 18.294 14.9822 18.294C10.0117 18.294 6.63029 16.3475 6.63029 17.4677C6.63029 18.588 10.0117 20.775 14.9822 20.775ZM10.4813 12.3375C9.4975 12.3375 8.7 11.54 8.7 10.5562C8.7 9.57246 9.4975 8.77496 10.4813 8.77496C11.465 8.77496 12.2625 9.57246 12.2625 10.5562C12.2625 11.54 11.465 12.3375 10.4813 12.3375ZM19.4813 12.3375C18.4975 12.3375 17.7 11.54 17.7 10.5562C17.7 9.57246 18.4975 8.77496 19.4813 8.77496C20.465 8.77496 21.2625 9.57246 21.2625 10.5562C21.2625 11.54 20.465 12.3375 19.4813 12.3375Z" fill="#50545B"/>
</svg>
