<svg width="24" height="24" viewBox="0 0 24 24" fill="none" xmlns="http://www.w3.org/2000/svg">
<path fill-rule="evenodd" clip-rule="evenodd" d="M12 4.79999C10.0904 4.79999 8.25909 5.55856 6.90883 6.90883C5.55856 8.25909 4.79999 10.0904 4.79999 12C4.79999 13.9096 5.55856 15.7409 6.90883 17.0912C8.25909 18.4414 10.0904 19.2 12 19.2C13.9096 19.2 15.7409 18.4414 17.0912 17.0912C18.4414 15.7409 19.2 13.9096 19.2 12C19.2 10.0904 18.4414 8.25909 17.0912 6.90883C15.7409 5.55856 13.9096 4.79999 12 4.79999ZM2.39999 12C2.39999 9.45392 3.41142 7.01212 5.21177 5.21177C7.01212 3.41142 9.45392 2.39999 12 2.39999C14.5461 2.39999 16.9879 3.41142 18.7882 5.21177C20.5886 7.01212 21.6 9.45392 21.6 12C21.6 14.5461 20.5886 16.9879 18.7882 18.7882C16.9879 20.5886 14.5461 21.6 12 21.6C9.45392 21.6 7.01212 20.5886 5.21177 18.7882C3.41142 16.9879 2.39999 14.5461 2.39999 12Z" fill="#15C39A"/>
<path d="M7.49997 11.5H16.5V13H7.49997V11.5ZM7.49997 15.25H13.5V16.75H7.49997V15.25ZM7.49997 7.75H16.5V9.25H7.49997V7.75Z" fill="#15C39A"/>
<path fill-rule="evenodd" clip-rule="evenodd" d="M18.7884 5.21159C19.0134 5.43662 19.1397 5.74179 19.1397 6.05999C19.1397 6.37819 19.0134 6.68336 18.7884 6.90839L6.90839 18.7884C6.68207 19.007 6.37895 19.1279 6.06431 19.1252C5.74968 19.1225 5.4487 18.9963 5.22621 18.7738C5.00372 18.5513 4.87752 18.2503 4.87479 17.9357C4.87205 17.621 4.99301 17.3179 5.21159 17.0916L17.0916 5.21159C17.3166 4.98662 17.6218 4.86024 17.94 4.86024C18.2582 4.86024 18.5634 4.98662 18.7884 5.21159Z" fill="#15C39A"/>
</svg>
