<svg width="32" height="32" viewBox="0 0 32 32" fill="none" xmlns="http://www.w3.org/2000/svg">
<path d="M23.304 10.6667H23.3334C24.9247 10.6667 26.4508 11.2988 27.576 12.424C28.7012 13.5492 29.3334 15.0754 29.3334 16.6667C29.3334 18.258 28.7012 19.7841 27.576 20.9093C26.4508 22.0345 24.9247 22.6667 23.3334 22.6667H9.33337C7.6205 22.667 5.97322 22.008 4.73316 20.8264C3.49311 19.6448 2.75543 18.0313 2.67311 16.3204C2.5908 14.6095 3.17017 12.9325 4.29107 11.6374C5.41197 10.3422 6.98838 9.52811 8.69337 9.364M23.304 10.6667C23.3227 10.4471 23.3325 10.2249 23.3334 10C23.3363 8.10824 22.608 6.28853 21.3007 4.92112C19.9935 3.55371 18.2083 2.7444 16.3183 2.6623C14.4283 2.58019 12.5797 3.23164 11.1588 4.48053C9.73787 5.72942 8.85453 7.47911 8.69337 9.364M23.304 10.6667C23.1698 12.1352 22.596 13.5292 21.6574 14.6667M8.69337 9.364C8.90404 9.34356 9.11737 9.33334 9.33337 9.33334C10.8347 9.33334 12.22 9.82934 13.3334 10.6667M18.6667 27.6667V27.3333C18.6667 26.9797 18.5262 26.6406 18.2762 26.3905C18.0261 26.1405 17.687 26 17.3334 26H16M18.6667 27.6667V28C18.6667 28.3536 18.5262 28.6928 18.2762 28.9428C18.0261 29.1929 17.687 29.3333 17.3334 29.3333H14.6667C14.3131 29.3333 13.9739 29.1929 13.7239 28.9428C13.4738 28.6928 13.3334 28.3536 13.3334 28V27.6667M18.6667 27.6667H25.3334M16 26H14.6667C14.3131 26 13.9739 26.1405 13.7239 26.3905C13.4738 26.6406 13.3334 26.9797 13.3334 27.3333V27.6667M16 26V22.6667M13.3334 27.6667H6.6667" stroke="#0E3F30" stroke-width="2" stroke-linecap="round" stroke-linejoin="round"/>
</svg>
